<svg id="Layer_1" data-name="Layer 1" xmlns="http://www.w3.org/2000/svg" viewBox="0 0 900 900"><defs><style>.cls-1{fill:#ffc94a;}.cls-2{fill:#fcf16f;}.cls-3{fill:#faab4b;}.cls-4{fill:#ed972d;}.cls-5{fill:#ffe307;}</style></defs><title>powerup</title><g id="Layer0_6_MEMBER_0_FILL" data-name="Layer0 6 MEMBER 0 FILL"><path class="cls-1" d="M469.37,297.69a43.93,43.93,0,0,0-5.92,3.7,27.74,27.74,0,0,1,7.9-9.38,32.3,32.3,0,0,1,21-7.64l3.21.24a1.32,1.32,0,0,0,.49,0,26.68,26.68,0,0,0,.74-6.41q0-11.34-7.15-24.18-9.37-16.77-24.92-16.77-29.1,0-40.2,24.92-6.92,15.29-6.91,42.17a110.77,110.77,0,0,0,.49,11.85c.27,1.33.6,3.21,1,5.67-1.15-.64-2.38-1.3-3.7-2q-14.31-7.15-35-7.16h-1.48c-1.76,1-3.57,2.06-5.43,3.21q-23.68,14.55-23.68,28.37,0,11.6,11.34,14.8,4.69,1.47,18,1.48,17.52,0,29.85-6.17,14.31-9.12,24.42-15.05-.5,15.54,1.48,19.49,3.21,6.17,16.28,6.16,8.88,0,19-11.1,8.38-11.34,8.64-11.83,0,4.43-1.49,20.47,0,17.26,8.64,26.39,7.89,8.64,22,8.64,27.87,0,37.5-15.55,5.67-9.12,5.67-27.87a62.23,62.23,0,0,0-1.48-14.8q-5.14-3.54-13.81-4.68a34.73,34.73,0,0,0,10.11-9.62q8.38-11.35,8.39-21.46,0-9.37-3.46-15.3a13.34,13.34,0,0,0-12.09-6.9,24.82,24.82,0,0,0-16.27,5.91,21.66,21.66,0,0,0-5.18,5.68q4.85,11,4.68,18.25a21.25,21.25,0,0,1-4.44,13.07l-4.69,5.92q4.77-10.64-.49-22.93-5-12.31-22.44-11.6t-20.48,2m78.19,131.22q-4.92,5.93-9.86,12.09-11.84,14.55-11.84,29.11A39.59,39.59,0,0,0,534.49,495q10.86,14.55,31.33,14.55a95.35,95.35,0,0,0,9.62-.25c.82-.16,1.56-.32,2.22-.49.16,0,.33.17.49.49a1.44,1.44,0,0,0-.49,1c-.5,1.48-.74,5.1-.74,10.86q0,40.94,29.6,40.94,24.42,0,41.69-7.15,16-6.66,22.94-18.25a37.43,37.43,0,0,0,.49-6.17q0-14.55-8.63-23.68-8.4-9.37-22-9.37a76.06,76.06,0,0,0-8.14.24,19.37,19.37,0,0,0-2,.49q-1.49,9.88-4.44,14.8-5.43,9.39-17,12.59a30.67,30.67,0,0,0,2-3.46q6.16-11.58,6.17-20.47,0-13.56-5.43-22-6.41-10.11-23.93-22.69,17-3.94,27.63,4.69a25.18,25.18,0,0,1,7.4,9.12q14.57-7.63,22.94-18.74a43.53,43.53,0,0,0,9.13-26.89q0-18-12.09-28.86a31.07,31.07,0,0,0-7.15-4.93,26.91,26.91,0,0,0-3.7-.25q-29.85,0-60.44,18.5-17.26,10.6-24.42,19.24M387.48,390.43q-14.06,0-29.11,7.65-11.6,5.91-15.54,13.56-19.49-3.45-36.75,14.31-18.25,18.75-18.25,41.94,0,16.53,8.13,27.38a6.08,6.08,0,0,1,1.49.74q16,7.65,29.1,6.9a22.67,22.67,0,0,1-2-10.11A33.52,33.52,0,0,1,328.77,476q4.2-7.63,11.84-9.61Q337.9,475,337.9,489.1q0,12.58,8.14,20.47A20.6,20.6,0,0,0,360.35,516a23.62,23.62,0,0,1-13.82,3.94q-5.43.5-12.08-3.21-17,5.68-35.52,28.13-21.46,26.39-21.47,48.1,0,16.27,11.6,28.61,11.83,12.59,28.37,12.58,22.94,0,37.73-13.57,4.69-5.93,7.4-9.37-5.91-3.94-5.91-16.28a77.66,77.66,0,0,1,.49-11.1,26.2,26.2,0,0,1,2.71-8.39q-1.23,13.82,9.38,27.63,13.06,16.77,33.3,16.77,7.16,0,15-4.68l-1,1.47q-7.4,11.36-22.2,16a6.55,6.55,0,0,0-.24,2q0,11.6,11.59,17.27,9.13,4.44,22.7,4.44,21.21,0,34.53-13.07a43.13,43.13,0,0,0,12.09-21q9.38,7.4,27.87,7.4,18,0,32.06-12.58Q549.29,604.3,549.29,588a42.67,42.67,0,0,0-1.23-10.36,3.05,3.05,0,0,0-.74-1.23q-9.37-13.81-28.12-13.81a43.48,43.48,0,0,0-20,5.18,55.37,55.37,0,0,0-1.73-19q-4.44-17.26-19-17.27-12.83,0-34.78,10.61-17.52,8.64-24.67,15.79.75-4.93,1.73-14.31,1-11.34,1-15.54a96,96,0,0,0-2.21-18q-3.21-14.81-8.14-21.46-12.35-16.29-20.23-20.48a19.14,19.14,0,0,0-7.9-2.22,110.78,110.78,0,0,0,13.08-22.69q6.4-14.81,6.41-26.89,0-12.58-1.72-17.26Q397.84,390.43,387.48,390.43Z"/><path class="cls-2" d="M468.88,214.81q-14.06,0-35.52,12.58-29.6,17.75-29.6,46.12a99.77,99.77,0,0,0,3,25.16c.29,1.15.7,2.72,1.23,4.69q-14.24,1.5-29.1,9.37h1.48q20.71,0,35,7.16c1.32.67,2.55,1.33,3.7,2-.39-2.46-.72-4.34-1-5.67a110.77,110.77,0,0,1-.49-11.85q0-26.88,6.91-42.17,11.1-24.92,40.2-24.92,15.56,0,24.92,16.77,7.15,12.84,7.15,24.18a26.68,26.68,0,0,1-.74,6.41,1.32,1.32,0,0,1-.49,0l-3.21-.24a32.3,32.3,0,0,0-21,7.64,27.74,27.74,0,0,0-7.9,9.38,43.93,43.93,0,0,1,5.92-3.7q3-1.24,20.48-2t22.44,11.6q5.26,12.3.49,22.93l4.69-5.92a21.25,21.25,0,0,0,4.44-13.07q.17-7.29-4.68-18.25a21.66,21.66,0,0,1,5.18-5.68,24.82,24.82,0,0,1,16.27-5.91,13.34,13.34,0,0,1,12.09,6.9q3.45,5.93,3.46,15.3,0,10.11-8.39,21.46a34.73,34.73,0,0,1-10.11,9.62q8.67,1.14,13.81,4.68a23.51,23.51,0,0,0-2-5.18,11.92,11.92,0,0,0-1.48-2.22q9-2.7,16-14.3,8.88-14.57,8.88-35,0-10.86-3-15.3-4.69-7.39-18.5-7.4a46.64,46.64,0,0,0-27.88,8.88q-6.78,4.76-8.88,9.38h0v0a100.53,100.53,0,0,0-4.43-30.83q-10.12-32.56-39.47-32.56M636.12,391.42a31.07,31.07,0,0,1,7.15,4.93q12.09,10.86,12.09,28.86a43.53,43.53,0,0,1-9.13,26.89q-8.38,11.1-22.94,18.74a25.18,25.18,0,0,0-7.4-9.12q-10.6-8.64-27.63-4.69,17.52,12.59,23.93,22.69,5.43,8.4,5.43,22,0,8.88-6.17,20.47a30.67,30.67,0,0,1-2,3.46q11.6-3.21,17-12.59,3-4.92,4.44-14.8a19.37,19.37,0,0,1,2-.49,76.06,76.06,0,0,1,8.14-.24q13.56,0,22,9.37,8.63,9.12,8.63,23.68a37.43,37.43,0,0,1-.49,6.17,39.69,39.69,0,0,0,4.93-20q0-13.56-5.92-20-7.9-8.88-27.88-8.87l-.24.24v-.24h.24q9.38-3.21,20.48-12.58,20.72-17.27,20.72-38.48,0-17-10.36-29.36Q660.54,392.41,636.12,391.42Z"/><path class="cls-3" d="M340.61,466.41q-7.65,2-11.84,9.61a33.52,33.52,0,0,0-4.19,16.78,22.67,22.67,0,0,0,2,10.11q-13.07.75-29.1-6.9a6.08,6.08,0,0,0-1.49-.74,35.09,35.09,0,0,0,6.42,6.65q3.94,3.21,13.07,7.4a97,97,0,0,0-34,31.09q-16,23.93-16,54,0,32.57,24.17,47.37,16.77,10.35,40.95,10.36,14.55,0,31.57-13.33,7.65-7.4,11.59-10.85,1,20,9.62,29.6,10.86,11.59,37.5,11.6,27.14,0,45.63-16.78a70.25,70.25,0,0,0,13.32-16.28c.5.33,1.07.74,1.73,1.24A32,32,0,0,0,501,643.51q15.29,0,31.08-8.63,22.2-12.09,22.2-34.53a41.94,41.94,0,0,0-6.17-22.7A42.67,42.67,0,0,1,549.29,588q0,16.29-14.31,29.11-14.06,12.58-32.06,12.58-18.51,0-27.87-7.4a43.13,43.13,0,0,1-12.09,21q-13.32,13.07-34.53,13.07-13.57,0-22.7-4.44-11.6-5.67-11.59-17.27a6.55,6.55,0,0,1,.24-2q14.81-4.68,22.2-16l1-1.47q-7.89,4.68-15,4.68-20.23,0-33.3-16.77-10.62-13.81-9.38-27.63a26.2,26.2,0,0,0-2.71,8.39,77.66,77.66,0,0,0-.49,11.1q0,12.33,5.91,16.28-2.7,3.45-7.4,9.37-14.79,13.57-37.73,13.57-16.53,0-28.37-12.58-11.6-12.33-11.6-28.61,0-21.71,21.47-48.1,18.49-22.46,35.52-28.13,6.65,3.71,12.08,3.21A23.62,23.62,0,0,0,360.35,516,20.6,20.6,0,0,1,346,509.57q-8.15-7.89-8.14-20.47Q337.9,475,340.61,466.41Z"/></g><g id="Layer0_6_MEMBER_1_FILL" data-name="Layer0 6 MEMBER 1 FILL"><path class="cls-4" d="M638.09,705.92q34.17-16.57,53.28-44.4,19.38-27.76,23.19-65.86-21.85,35.28-51.06,45.14-28.95,10.08-59.69-5.92-4.51,33-53,53.28t-81.15,25.41q18.93,7.11,76.71,7.89,57.82,1,91.76-15.54M228.87,603.55q0-4.44.25-7.89Q204.94,615.15,205,649.92q0,29.61,30.83,40.46a118.59,118.59,0,0,0,21,4.93q-8.88-7.15-15.3-20.22Q245.4,678.3,254,682q8.39,3.45,21.71,3.7,13.06-.24,21.71-3.7t12.82-5.18q-48.84-8.38-65.86-28.61-15.54-18.5-15.54-44.65M166.46,245.89q-53.27,35.26-53.28,105.57,0,46.13,26.15,83.37,4.44,6.66,26.15,28.37a72.85,72.85,0,0,0-9.13,12.58q-7.15,13.32-7.15,32.81,0,37.24,36.75,66.35h.25q-6.66-16.28-5.43-44.89,1.24-28.86,6.17-45.14,4.68-16.29,13.32-24.67a92.91,92.91,0,0,0,27.38,17.27q-4.44-12.83-7.89-24.18-3.7-11.58-3.7-49.82t16-78.94q22.2-55.74,91.27-88.3-27.14-23.94-72.28-20.48T166.46,245.89Z"/><path class="cls-2" d="M537.7,126.25a142.6,142.6,0,0,0-28.37,13.57q56.87,9.33,85.1,53a136.31,136.31,0,0,1,22,75q0,2.87-2.46,12.33,29.93,2.11,43.16,27.63,8.89,17,8.88,40.7,3.94-9.62,18.5-15.29,14.07-5.43,34.79-5.43,68.82,0,68.81,106.31,0,6.18-2.71,23.19l-.24,1.73q12.18-9.72,23.43-25.41,25.9-36,25.9-78.93,0-33.8-10.11-53-18-33.79-67.34-33.79-28.86,0-38.48,1.48a94.14,94.14,0,0,0-22,6.17q-4.11-11.44-9.12-15.55a47.08,47.08,0,0,0-9.13-6.16q1.69-7.93,3.45-20.23,2.46-17,2.47-20.23,0-42.16-18.26-64.87-25.15-31.32-87.07-31.33Q563.35,117.12,537.7,126.25Z"/></g><g id="Layer0_6_MEMBER_1_MEMBER_0_FILL" data-name="Layer0 6 MEMBER 1 MEMBER 0 FILL"><path class="cls-5" d="M324.08,193.59a7,7,0,0,0-1.72-3,4,4,0,0,0-2,.25c-.65.33-1,1.31-1,3,0,1.48.16,2.3.49,2.47h1.73a3.73,3.73,0,0,0,2.46-2.72m-35-11.35q3.94,0,3.95-3.7c-2-3.12-5.18-5.67-9.63-7.64q-8.13-3.71-8.87,3.94c1.47,1.32,3.53,3,6.16,5.18a15.11,15.11,0,0,0,8.39,2.22M383.28,70.51a2.23,2.23,0,0,0,1.24-2q-1.25-2-4.69-13.81-2.22-7.89-6.9-7.15a.82.82,0,0,1-.75.49v2q0,2.22,3.95,10.11,4.2,8.64,7.15,10.37M826.55,582.09c2.46,0,3.86-.33,4.19-1a23.73,23.73,0,0,0-13.08-11.35q-9.36-3.45-14,5.43,1.73,2,10.6,4.68,8.14,2.22,12.34,2.22M168.19,613.91c-.33-.33-.49-.57-.49-.74q-2.72-.24-9.37,2.22-7.16,2.72-9.62,5.68l1.23.74,6.17.74q1.47,0,6.65-2.23c3.79-1.47,5.68-2.71,5.68-3.7a8.21,8.21,0,0,0-.25-2.71m151.7,179.33-.49-.49q-5.17.5-9.87,6.9-3.94,5.43-3.95,8.15c0,1.48.25,2.21.75,2.21h2q6.66-2.22,11.84-14.3a5.84,5.84,0,0,0-.25-2.47m108.78-64.38q-12.45,3.95-20.47,3.95-9.87,0-12.34-1.24-4.42-2.22-4.43-10.36c.31-2.56.56-5,.73-7.4a80.42,80.42,0,0,1-17.26,10.61q-11.1,5.43-17,5.43-25.15,0-25.16-26.64a37.82,37.82,0,0,1,.74-7.4q-12.48,29.3-21.21,49.82c.92-.45,1.83-1,2.71-1.48,3.29-2.14,5.51-3.2,6.66-3.2q5.91,0,6.91,8.14a36.5,36.5,0,0,1,0,10.36c0,3.29-.75,8.06-2.22,14.3-.31,1.36-.64,2.59-1,3.7a58.74,58.74,0,0,1,10.36-8.14,28.48,28.48,0,0,1,14.8-3.94q7.39,0,11.1,20.72a205.86,205.86,0,0,1,2.47,33.54,21.94,21.94,0,0,1-.25,3q10.57-18.9,23.43-38.73,22-34.29,41.44-55M766.61,549.78q0-6.4,23.18-11.1,24.42-5.11,68.33-6.66-31.08-4.69-48.84-7.9a578.39,578.39,0,0,1-56.49-14.05q6.9,10.88,6.91,17.75,0,7.66-12.09,16.29a56.68,56.68,0,0,1-11.84,6.66q25.53,4.56,36.76,6.9a26.84,26.84,0,0,1-3.21-2.22,7,7,0,0,1-2.71-5.67M407,150.92q4.69-3.45,20.23,3.7Q406.48,142.77,394.88,127t-14.06-22.94q-.74,3.47-4.69,21.46-4.19,18-13.07,17.27t-21.71-5.43q-13.07-4.68-23.19-7.89a167.89,167.89,0,0,1,26.4,20.47q11.34,10.86,14.55,19.24a25.67,25.67,0,0,1,.25-3.95q1-10.59,18-10.6,4.2,0,23.44,5.92c.49.16,1.07.33,1.73.49Q402.28,154.13,407,150.92Z"/></g></svg>